<?xml version="1.0" encoding="UTF-8"?>
<svg id="Capa_1" data-name="Capa 1" xmlns="http://www.w3.org/2000/svg" viewBox="0 0 474.12 210.42">
  <defs>
    <style>
      .cls-1 {
        fill: #162d8e;
      }

      .cls-2 {
        fill: #c23eff;
      }
    </style>
  </defs>
  <path class="cls-1" d="M133.91,151.45v-74.79h15.87v74.79h-15.87Z"/>
  <path class="cls-1" d="M156.96,89.26v-12.61h15.87v12.61h-15.87ZM156.96,151.45v-55.3h15.87v55.3h-15.87Z"/>
  <path class="cls-1" d="M279.5,151.45l-13.9-23.84-6.85,6.67v17.16h-15.56v-74.79h15.66v38.46l17.53-18.96h19.19l-18.67,19.7,21.05,35.6h-18.46Z"/>
  <path class="cls-1" d="M353.17,142.55c-3.01,4.66-6.74,7.1-8.5,7.95s-4.98,2.01-10.06,2.01c-5.7,0-8.61-1.7-13.28-4.66v22.78h-16.18v-74.48h14.21l.1,5.4c.83-1.06,1.14-1.59,2.28-2.44,1.97-1.69,6.22-4.24,12.86-4.24,3.11,0,10.37.53,16.28,6.99,5.5,5.93,7.26,14.09,7.26,21.82-.1,9.43-3.01,15.68-4.98,18.86ZM339.07,109.92c-1.24-1.48-2.9-2.65-4.77-3.18-1.04-.32-1.87-.32-2.28-.32-5.91,0-11.41,5.51-11.41,17.48,0,1.17-.21,7.84,2.8,12.4.83,1.17,1.87,2.23,3.11,2.97.73.53,2.59,1.48,5.08,1.48,5.5,0,7.67-4.03,8.61-5.72,1.25-2.33,2.59-5.62,2.59-11.55,0-1.59.21-8.79-3.73-13.56Z"/>
  <path class="cls-1" d="M398.11,155.9c-1.24,3.92-2.49,7.31-5.29,10.38-3.42,3.6-6.53,4.24-11.31,4.24h-16.5v-13.03h12.25c3.73,0,4.98-2.12,4.98-4.03,0-1.48-.31-2.65-1.14-5.3-.52-1.69-1.04-3.39-1.56-5.19l-14.21-46.83h17.01l8.92,39.62,8.92-39.62h17.01l-19.08,59.75Z"/>
  <path class="cls-2" d="M421.16,59.67c-.93-1.1-2.55-1.36-4.26-.7-2.13.84-10.66,5.75-12.5,7.2-2.58,2.04-1.63,4.15-1.1,4.96.07.1.15.2.24.28l6.54,5.89-30.7-.45,15.54-26.83,1.64,8.82c.04.21.13.41.26.58,1.12,1.5,2.42,1.9,4.11,1.26,1.96-.75,11.81-6.44,13.34-7.71,1.31-1.1,1.71-2.76.99-4.14-.76-1.45-2.44-2.1-4.08-1.58-.09.03-.18.07-.26.11l-8.98,5.07-1.43-8.61c-.44-1.86-1.68-3.29-3.32-3.83-1.52-.49-3.13-.13-4.41,1.02-.11.1-.2.21-.28.34l-20.46,35.27c-.06.1-.11.21-.14.33-.57,2.06-.44,3.62.41,4.77,1.36,1.86,4.03,1.89,6.39,1.91l5.16.14c6.3.19,13.14.4,19.74.4,3.73,0,7.38-.07,10.8-.24,2.1-.11,3.68-.82,4.56-2.05.51-.72,1.02-1.98.52-3.87-.5-1.89-2.87-3.92-6.17-6.59-.74-.6-1.45-1.18-2.03-1.68l9.43-5.42c.22-.12.4-.31.52-.53.85-1.54.83-3.08-.06-4.14Z"/>
  <path class="cls-1" d="M125.19,123.73c-4.98,0-10.07-.11-15.04-.24-4.06,8.99-13.61,14.51-23.63,12.83-12.02-2.02-20.19-13.65-18.22-25.93,1.98-12.28,13.37-20.63,25.39-18.61,2.53.42,4.9,1.35,7.11,2.61l8.03-13.85c-3.88-2.27-8.12-3.87-12.59-4.62-20.59-3.46-40.09,10.84-43.47,31.86s10.61,40.94,31.19,44.4c19.45,3.27,37.91-9.33,42.75-28.47-.51,0-1.01.02-1.53.02Z"/>
  <path class="cls-1" d="M233.71,135.51h0c-3.64-.77-7.34-1.64-10.95-2.51l-.6-.14-.37.51c-4.16,5.74-11.62,7.96-18.13,5.39-3.88-1.53-6.95-4.51-8.64-8.41-1.69-3.89-1.8-8.22-.3-12.18,3.09-8.19,12.13-12.29,20.16-9.13,1.59.63,3.12,1.58,4.54,2.84l.69.61,9.2-10.29-.71-.64c-2.65-2.4-5.62-4.26-8.81-5.52-15.04-5.92-32,1.75-37.8,17.12-2.81,7.43-2.61,15.54.56,22.84,3.17,7.3,8.92,12.9,16.19,15.77,3.38,1.33,6.89,1.96,10.36,1.96,10.87,0,21.35-6.22,26.37-16.63l.54-1.11-2.3-.47Z"/>
</svg>